<?xml version="1.0" encoding="UTF-8" standalone="no"?>
<svg
   width="43mm"
   height="43mm"
   viewBox="0 0 43 43"
   version="1.1"
   id="svg698"
   xmlns="http://www.w3.org/2000/svg"
   xmlns:svg="http://www.w3.org/2000/svg">
  <defs
     id="defs695" />
  <g
     id="layer1">
    <g
       id="g1226"
       transform="translate(-15.839236,-11.865823)">
      <path
         id="path223-6"
         style="fill:#ffffff;fill-opacity:1;fill-rule:evenodd;stroke:none;stroke-width:0.352777"
         d="m 37.33924,12.588206 c -11.764082,0 -21.30361,9.537415 -21.30361,21.30361 0,9.41211 6.10407,17.397341 14.56862,20.214269 1.064683,0.197205 1.455724,-0.46206 1.455724,-1.024744 0,-0.507645 -0.01976,-2.186048 -0.02894,-3.966165 -5.926666,1.288698 -7.177341,-2.513542 -7.177341,-2.513542 -0.969079,-2.462035 -2.365229,-3.117122 -2.365229,-3.117122 -1.932869,-1.32221 0.145727,-1.295011 0.145727,-1.295011 2.139243,0.150283 3.265434,2.195732 3.265434,2.195732 1.900061,3.256492 4.983949,2.314771 6.199622,1.770433 0.191558,-1.376537 0.743124,-2.316414 1.352372,-2.848404 -4.731808,-0.538339 -9.705869,-2.365631 -9.705869,-10.528556 0,-2.32551 0.831919,-4.225584 2.194698,-5.717479 -0.221192,-0.536932 -0.950405,-2.704013 0.206706,-5.638416 0,0 1.78889,-0.571892 5.859592,2.184362 1.699331,-0.472016 3.522035,-0.708802 5.332492,-0.717269 1.810453,0.0085 3.634118,0.245253 5.336624,0.717269 4.066117,-2.756254 5.852872,-2.184362 5.852872,-2.184362 1.159581,2.934403 0.430482,5.101484 0.20929,5.638416 1.365954,1.491895 2.192113,3.391969 2.192113,5.717479 0,8.182681 -4.983768,9.984099 -9.72757,10.511504 0.764117,0.661104 1.444874,1.957427 1.444874,3.944977 0,2.850444 -0.02429,5.144482 -0.02429,5.846154 0,0.567269 0.383106,1.231876 1.46296,1.022678 8.460314,-2.820106 14.556732,-10.802913 14.556732,-20.212203 0,-11.766195 -9.538118,-21.30361 -21.303606,-21.30361 z" />
      <path
         d="m 24.104537,43.175221 c -0.04692,0.106186 -0.213431,0.137936 -0.365125,0.06491 -0.154869,-0.0695 -0.2413,-0.213783 -0.191206,-0.319969 0.04586,-0.108656 0.212373,-0.138995 0.366889,-0.06632 0.154517,0.0695 0.242711,0.215195 0.189442,0.321381"
         style="fill:#ffffff;fill-opacity:1;fill-rule:nonzero;stroke:none;stroke-width:0.352778"
         id="path227" />
      <path
         d="m 24.967536,44.137775 c -0.1016,0.09419 -0.300567,0.05045 -0.434975,-0.09842 -0.1397,-0.148519 -0.165453,-0.347486 -0.06244,-0.442736 0.104775,-0.09419 0.297392,-0.05009 0.436739,0.09842 0.1397,0.150283 0.166864,0.347486 0.06068,0.442736"
         style="fill:#ffffff;fill-opacity:1;fill-rule:nonzero;stroke:none;stroke-width:0.352778"
         id="path231" />
      <path
         d="m 25.807466,45.364558 c -0.130528,0.09102 -0.344311,0.006 -0.47625,-0.183444 -0.130528,-0.189795 -0.130528,-0.416984 0.0032,-0.508 0.131939,-0.09102 0.342547,-0.0088 0.47625,0.178858 0.130175,0.192617 0.130175,0.419805 -0.0032,0.512586"
         style="fill:#ffffff;fill-opacity:1;fill-rule:nonzero;stroke:none;stroke-width:0.352778"
         id="path235" />
      <path
         d="m 26.958121,46.550034 c -0.116769,0.128764 -0.365478,0.09419 -0.547511,-0.08149 -0.186267,-0.171802 -0.238125,-0.415572 -0.121356,-0.544336 0.118534,-0.129116 0.368653,-0.09278 0.552098,0.08149 0.184855,0.17145 0.240947,0.416983 0.116769,0.544336"
         style="fill:#ffffff;fill-opacity:1;fill-rule:nonzero;stroke:none;stroke-width:0.352778"
         id="path239" />
      <path
         d="m 28.545621,47.238337 c -0.05186,0.166864 -0.291042,0.242358 -0.532342,0.17145 -0.240947,-0.07303 -0.398639,-0.268111 -0.349955,-0.436739 0.05009,-0.168275 0.290689,-0.246944 0.533753,-0.171097 0.240594,0.07267 0.398638,0.2667 0.348544,0.436386"
         style="fill:#ffffff;fill-opacity:1;fill-rule:nonzero;stroke:none;stroke-width:0.352778"
         id="path243" />
      <path
         d="m 30.289191,47.365832 c 0.006,0.175683 -0.198614,0.321381 -0.451908,0.324556 -0.254706,0.006 -0.461081,-0.136525 -0.463903,-0.309387 0,-0.177447 0.200378,-0.32138 0.45473,-0.325966 0.253295,-0.0049 0.461081,0.136525 0.461081,0.310797"
         style="fill:#ffffff;fill-opacity:1;fill-rule:nonzero;stroke:none;stroke-width:0.352778"
         id="path247" />
      <path
         d="m 31.911473,47.089853 c 0.03034,0.171097 -0.145697,0.347133 -0.397228,0.394053 -0.247297,0.04551 -0.47625,-0.06068 -0.507647,-0.230364 -0.03069,-0.175683 0.148167,-0.35172 0.395464,-0.397228 0.251883,-0.04374 0.477308,0.05927 0.509411,0.233539"
         style="fill:#ffffff;fill-opacity:1;fill-rule:nonzero;stroke:none;stroke-width:0.352778"
         id="path251" />
    </g>
  </g>
</svg>
