<?xml version="1.0" encoding="UTF-8"?>
<svg width="121px" height="121px" viewBox="-22 -12 121 121" xmlns="http://www.w3.org/2000/svg" xmlns:xlink="http://www.w3.org/1999/xlink" version="1.1">
 <!-- Generated by Pixelmator Pro 1.5.5 -->
 <g id="group">
  <path id="Path" d="M63.1 28.3 L56.5 34.9 C67.3 45.7 67.3 63.1 56.5 73.7 45.7 84.5 28.3 84.5 17.7 73.7 6.9 62.9 6.9 45.5 17.7 34.9 L34.8 17.8 37.2 15.4 37.2 2.5 11.4 28.3 C-3 42.7 -3 65.9 11.4 80.3 25.8 94.7 49 94.7 63.1 80.3 77.5 65.8 77.5 42.7 63.1 28.3 Z" fill="#ee4c2c" fill-opacity="1" stroke="none"/>
  <path id="Path-1" d="M55 21.9 C55 24.551 52.851 26.7 50.2 26.7 47.549 26.7 45.4 24.551 45.4 21.9 45.4 19.249 47.549 17.1 50.2 17.1 52.851 17.1 55 19.249 55 21.9 Z" fill="#ee4c2c" fill-opacity="1" stroke="none"/>
 </g>
</svg>
